<?xml version="1.0" encoding="UTF-8"?>
<svg width="752px" height="165px" viewBox="0 0 752 165" version="1.1" xmlns="http://www.w3.org/2000/svg" xmlns:xlink="http://www.w3.org/1999/xlink">
    <!-- Generator: Sketch 48.2 (47327) - http://www.bohemiancoding.com/sketch -->
    <title>logo</title>
    <desc>Created with Sketch.</desc>
    <defs></defs>
    <g id="Page-1" stroke="none" stroke-width="1" fill="none" fill-rule="evenodd">
        <g id="logo" fill-rule="nonzero">
            <path d="M17,125.08 C10.831528,125.061075 5.15730103,121.702226 2.17343161,116.303436 C-0.810437813,110.904647 -0.635706032,104.313122 2.63,99.08 L33.15,50.31 C36.1700468,44.7572149 42.0215629,41.3385028 48.3417628,41.4343064 C54.6619628,41.53011 60.4071703,45.124609 63.2575265,50.7663796 C66.1078826,56.4081501 65.5926983,63.1655474 61.92,68.31 L31.37,117.12 C28.2649364,122.065162 22.8391748,125.070664 17,125.08 Z" id="Shape" fill="#FF3D57"></path>
            <path d="M69.61,125.08 C63.441528,125.061075 57.767301,121.702226 54.7834316,116.303436 C51.7995622,110.904647 51.974294,104.313122 55.24,99.08 L85.8,50.31 C88.8200468,44.7572149 94.6715629,41.3385028 100.991763,41.4343064 C107.311963,41.53011 113.05717,45.124609 115.907526,50.7663796 C118.757883,56.4081501 118.242698,63.1655474 114.57,68.31 L84,117.12 C80.8911509,122.071176 75.4562874,125.077535 69.61,125.08 Z" id="Shape" fill="#FFCB00"></path>
            <ellipse id="Oval" fill="#00D647" cx="122.26" cy="108.5" rx="17" ry="16.59"></ellipse>
            <polygon id="Shape" fill="#000" points="725.92 44.06 707.88 90.04 690.01 44.06 664.34 44.06 695.56 116.75 676.13 164.81 701.64 164.81 751.6 44.06"></polygon>
            <path d="M637.31,53.08 C631.07,44.08 618.93,42.33 613.72,42.33 C593.08,42.33 572.43,58.46 572.43,84.48 C572.43,110.5 593.08,126.64 613.72,126.64 C619.97,126.64 632.11,123.64 637.31,115.88 L637.31,125.08 L661.25,125.08 L661.25,44.08 L637.31,44.08 L637.31,53.08 Z M617.71,103.74 C607.65,103.74 597.41,96.11 597.41,84.48 C597.41,72.85 607.65,65.23 617.71,65.23 C627.6,65.23 637.31,72.34 637.31,84.48 C637.31,96.62 627.6,103.74 617.71,103.74 Z" id="Shape" fill="#000"></path>
            <path d="M541.68,54 C537.68,46.54 527.98,42.38 517.92,42.38 C497.1,42.38 478.71,58.86 478.71,84.88 C478.71,110.38 497.1,126.88 517.92,126.88 C527.98,126.88 537.69,122.55 541.68,115.09 L541.68,125.15 L565.62,125.15 L565.62,0 L541.68,0 L541.68,54 Z M522.43,104 C512.19,104 503.69,96.37 503.69,84.4 C503.69,72.78 512.19,65.14 522.43,65.14 C532.32,65.14 541.16,72.26 541.16,84.4 C541.16,95.93 532.49,103.91 522.43,103.91 L522.43,104 Z" id="Shape" fill="#000"></path>
            <path d="M442.93,42.33 C433.39,42.33 423.85,47.71 419.51,55.86 L419.51,44.06 L395.4,44.06 L395.4,125.06 L419.51,125.06 L419.51,82.23 C419.51,69.91 425.93,65.75 434.43,65.75 C442.59,65.75 448.48,71.13 448.48,81.88 L448.48,125.08 L472.6,125.08 L472.6,76.68 C472.6,53.61 461.15,42.33 442.93,42.33 Z" id="Shape" fill="#000"></path>
            <path d="M346.43,42.33 C323.54,42.33 304.43,58.81 304.43,84.33 C304.43,109.85 323.52,126.49 346.43,126.49 C369.34,126.49 388.59,109.83 388.59,84.33 C388.59,58.83 369.33,42.33 346.43,42.33 Z M346.43,102.87 C336.55,102.87 328.22,95.59 328.22,84.31 C328.094049,79.4265045 329.966145,74.7030479 333.403416,71.2318004 C336.840687,67.7605529 341.545502,65.8420886 346.43,65.92 C356.5,65.92 364.82,73.38 364.82,84.31 C364.82,95.59 356.5,102.87 346.43,102.87 Z" id="Shape" fill="#000"></path>
            <path d="M267.29,42.33 C261.56,42.33 250.81,44.06 243,56.73 C238.49,47.36 229.81,42.5 217,42.5 C207.939272,42.4350546 199.670615,47.6532529 195.83,55.86 L195.83,44.06 L171.7,44.06 L171.7,125.06 L195.81,125.06 L195.81,82.23 C195.81,69.91 202.58,65.75 209.86,65.75 C216.8,65.75 223.05,71.13 223.22,81.36 L223.22,125.08 L247.34,125.08 L247.34,82.23 C247.34,70.43 253.58,65.75 261.21,65.75 C268.33,65.75 274.57,71.3 274.57,81.88 L274.57,125.08 L298.51,125.08 L298.51,79.08 C298.51,54.65 286.54,42.33 267.29,42.33 Z" id="Shape" fill="#000"></path>
        </g>
    </g>
</svg>